<?xml version="1.0" encoding="UTF-8" standalone="no"?>
<!DOCTYPE svg PUBLIC "-//W3C//DTD SVG 1.1//EN" "http://www.w3.org/Graphics/SVG/1.1/DTD/svg11.dtd">
<svg width="100%" height="100%" viewBox="0 0 256 256" version="1.1" xmlns="http://www.w3.org/2000/svg" xmlns:xlink="http://www.w3.org/1999/xlink" xml:space="preserve" xmlns:serif="http://www.serif.com/" style="fill-rule:evenodd;clip-rule:evenodd;">
    <g id="Ebene-1" serif:id="Ebene 1" transform="matrix(1,0,0,1,-169.638,-292.945)">
        <g id="path3777" transform="matrix(2.06135e-16,3.36645,-3.36645,2.06135e-16,613.239,-321.123)">
            <path d="M202.429,102.286L238.432,102.286" style="fill:none;fill-rule:nonzero;stroke:black;stroke-width:2.97px;"/>
        </g>
        <g id="path2987" transform="matrix(1.57056e-16,2.56491,-2.56491,1.57056e-16,480.152,103.852)">
            <path d="M100,82.362C100,87.848 95.486,92.362 90,92.362C84.514,92.362 80,87.848 80,82.362C80,76.876 84.514,72.362 90,72.362C95.486,72.362 100,76.876 100,82.362Z" style="fill:white;fill-rule:nonzero;stroke:black;stroke-width:3.9px;stroke-linejoin:round;"/>
        </g>
        <g id="path2987-1" transform="matrix(1.57056e-16,2.56491,-2.56491,1.57056e-16,480.152,276.354)">
            <path d="M100,82.362C100,87.848 95.486,92.362 90,92.362C84.514,92.362 80,87.848 80,82.362C80,76.876 84.514,72.362 90,72.362C95.486,72.362 100,76.876 100,82.362Z" style="fill:white;fill-rule:nonzero;stroke:black;stroke-width:3.9px;stroke-linejoin:round;"/>
        </g>
        <g id="path2987-11" serif:id="path2987-1" transform="matrix(1.57056e-16,2.56491,-2.56491,1.57056e-16,480.152,190.103)">
            <path d="M100,82.362C100,87.848 95.486,92.362 90,92.362C84.514,92.362 80,87.848 80,82.362C80,76.876 84.514,72.362 90,72.362C95.486,72.362 100,76.876 100,82.362Z" style="fill:white;fill-rule:nonzero;stroke:black;stroke-width:3.9px;stroke-linejoin:round;"/>
        </g>
        <g id="path3781-0" transform="matrix(3.36645,0,0,3.36645,-476.198,141.537)">
            <g transform="matrix(0.297049,-0,-0,0.297049,191.845,44.9757)">
                <path d="M204.887,46.1L182.387,16.1L159.887,46.1L204.887,46.1Z" style="fill-rule:nonzero;"/>
                <path d="M204.887,90.841L182.387,120.841L159.887,90.841L204.887,90.841Z" style="fill-rule:nonzero;"/>
                <path d="M182.387,40.1L182.387,96.841" style="fill:none;fill-rule:nonzero;stroke:black;stroke-width:10px;"/>
            </g>
        </g>
        <g id="path3781-01" serif:id="path3781-0" transform="matrix(3.36645,0,0,3.36645,-476.198,260.596)">
            <g transform="matrix(0.297049,-0,-0,0.297049,191.845,9.60931)">
                <path d="M204.887,165.159L182.387,135.159L159.887,165.159L204.887,165.159Z" style="fill-rule:nonzero;"/>
                <path d="M204.887,209.9L182.387,239.9L159.887,209.9L204.887,209.9Z" style="fill-rule:nonzero;"/>
                <path d="M182.387,159.159L182.387,215.9" style="fill:none;fill-rule:nonzero;stroke:black;stroke-width:10px;"/>
            </g>
        </g>
    </g>
</svg>
