<?xml version="1.0" encoding="UTF-8" standalone="no"?>
<!DOCTYPE svg PUBLIC "-//W3C//DTD SVG 1.1//EN" "http://www.w3.org/Graphics/SVG/1.1/DTD/svg11.dtd">
<svg width="100%" height="100%" viewBox="0 0 256 256" version="1.1" xmlns="http://www.w3.org/2000/svg" xmlns:xlink="http://www.w3.org/1999/xlink" xml:space="preserve" xmlns:serif="http://www.serif.com/" style="fill-rule:evenodd;clip-rule:evenodd;stroke-linejoin:round;">
    <g id="Ebene-1" serif:id="Ebene 1" transform="matrix(1,0,0,1,-169.638,-292.945)">
        <g id="path2987" transform="matrix(2.56491,0,0,2.56491,-19.4555,285.285)">
            <path d="M100,82.362C100,87.848 95.486,92.362 90,92.362C84.514,92.362 80,87.848 80,82.362C80,76.876 84.514,72.362 90,72.362C95.486,72.362 100,76.876 100,82.362Z" style="fill:white;fill-rule:nonzero;stroke:black;stroke-width:3.9px;"/>
        </g>
        <g id="path2987-1" transform="matrix(2.56491,0,0,2.56491,153.047,285.285)">
            <path d="M100,82.362C100,87.848 95.486,92.362 90,92.362C84.514,92.362 80,87.848 80,82.362C80,76.876 84.514,72.362 90,72.362C95.486,72.362 100,76.876 100,82.362Z" style="fill:white;fill-rule:nonzero;stroke:black;stroke-width:3.9px;"/>
        </g>
        <g id="path3777" transform="matrix(3.36645,0,0,3.36645,-444.43,152.198)">
            <path d="M202.429,102.286L238.432,102.286" style="fill:none;fill-rule:nonzero;stroke:black;stroke-width:2.97px;stroke-linejoin:miter;"/>
        </g>
        <g id="path3781" transform="matrix(3.36645,0,0,3.36645,-444.43,152.198)">
            <g transform="matrix(0.297049,-0,-0,0.297049,182.408,41.8088)">
                <path d="M64.152,56.759L41.652,26.759L19.152,56.759L64.152,56.759Z" style="fill-rule:nonzero;"/>
                <path d="M64.152,101.504L41.652,131.504L19.152,101.504L64.152,101.504Z" style="fill-rule:nonzero;"/>
                <path d="M41.652,50.759L41.652,107.504" style="fill:none;fill-rule:nonzero;stroke:black;stroke-width:10px;stroke-linejoin:miter;"/>
            </g>
        </g>
        <g id="path3781-0" transform="matrix(2.06135e-16,-3.36645,3.36645,2.06135e-16,77.7591,1200.3)">
            <g transform="matrix(1.8189e-17,0.297049,-0.297049,1.8189e-17,269.529,27.2925)">
                <path d="M105.629,56.632L75.629,79.132L105.629,101.632L105.629,56.632Z" style="fill-rule:nonzero;"/>
                <path d="M150.371,56.632L180.371,79.132L150.371,101.632L150.371,56.632Z" style="fill-rule:nonzero;"/>
                <path d="M99.629,79.132L156.371,79.132" style="fill:none;fill-rule:nonzero;stroke:black;stroke-width:10px;stroke-linejoin:miter;"/>
            </g>
        </g>
    </g>
</svg>
