<?xml version="1.0" encoding="UTF-8" standalone="no"?>
<!DOCTYPE svg PUBLIC "-//W3C//DTD SVG 1.1//EN" "http://www.w3.org/Graphics/SVG/1.1/DTD/svg11.dtd">
<svg width="100%" height="100%" viewBox="0 0 256 256" version="1.1" xmlns="http://www.w3.org/2000/svg" xmlns:xlink="http://www.w3.org/1999/xlink" xml:space="preserve" xmlns:serif="http://www.serif.com/" style="fill-rule:evenodd;clip-rule:evenodd;stroke-linejoin:round;">
    <g id="Ebene-1" serif:id="Ebene 1" transform="matrix(-1,1.22465e-16,-1.22465e-16,-1,425.64,548.945)">
        <g id="path2987" transform="matrix(1.57056e-16,2.56491,-2.56491,1.57056e-16,433.298,103.852)">
            <path d="M100,82.362C100,87.848 95.486,92.362 90,92.362C84.514,92.362 80,87.848 80,82.362C80,76.876 84.514,72.362 90,72.362C95.486,72.362 100,76.876 100,82.362Z" style="fill:white;fill-rule:nonzero;stroke:black;stroke-width:3.9px;"/>
        </g>
        <g id="path2987-1" transform="matrix(1.57056e-16,2.56491,-2.56491,1.57056e-16,433.298,276.354)">
            <path d="M100,82.362C100,87.848 95.486,92.362 90,92.362C84.514,92.362 80,87.848 80,82.362C80,76.876 84.514,72.362 90,72.362C95.486,72.362 100,76.876 100,82.362Z" style="fill:white;fill-rule:nonzero;stroke:black;stroke-width:3.9px;"/>
        </g>
        <g id="path3777" transform="matrix(2.06135e-16,3.36645,-3.36645,2.06135e-16,566.385,-321.123)">
            <path d="M202.429,102.286L238.432,102.286" style="fill:none;fill-rule:nonzero;stroke:black;stroke-width:2.97px;stroke-linejoin:miter;"/>
        </g>
        <g transform="matrix(1,1.63435e-22,-1.63435e-22,1,169.639,292.944)">
            <g id="path3781">
                <g>
                    <path d="M154.496,64.152L124.496,41.652L154.496,19.152L154.496,64.152Z" style="fill-rule:nonzero;"/>
                    <path d="M229.241,41.652L148.496,41.652" style="fill:none;fill-rule:nonzero;stroke:black;stroke-width:10px;stroke-linejoin:miter;"/>
                </g>
            </g>
        </g>
        <g transform="matrix(1,1.63435e-22,-1.63435e-22,1,169.639,292.944)">
            <g id="path3781-0">
                <g>
                    <path d="M154.497,236.654L124.497,214.154L154.497,191.654L154.497,236.654Z" style="fill-rule:nonzero;"/>
                    <path d="M229.239,214.154L148.497,214.154" style="fill:none;fill-rule:nonzero;stroke:black;stroke-width:10px;stroke-linejoin:miter;"/>
                </g>
            </g>
        </g>
    </g>
</svg>
